{
  "accessors": [
    {
      "bufferView": 2,
      "componentType": 5126,
      "count": 11041,
      "max": [
        0.9610863327980042,
        0.9610864520072937,
        0.9791140556335449
      ],
      "min": [
        -0.9610861539840698,
        -0.9610869884490967,
        -0.9791141152381897
      ],
      "type": "VEC3"
    },
    {
      "bufferView": 2,
      "byteOffset": 132492,
      "componentType": 5126,
      "count": 11041,
      "max": [
        0.9999630451202393,
        0.9999783039093018,
        0.9993718862533569
      ],
      "min": [
        -0.9999630451202393,
        -0.9999783039093018,
        -0.9993718862533569
      ],
      "type": "VEC3"
    },
    {
      "bufferView": 1,
      "componentType": 5126,
      "count": 11041,
      "max": [
        0.996635377407074,
        0.9383050203323364
      ],
      "min": [
        0.0030320030637085438,
        0.5000000596046448
      ],
      "type": "VEC2"
    },
    {
      "bufferView": 0,
      "componentType": 5125,
      "count": 52224,
      "type": "SCALAR"
    },
    {
      "bufferView": 2,
      "byteOffset": 264984,
      "componentType": 5126,
      "count": 3657,
      "max": [
        0.9251660108566284,
        0.9251660704612732,
        0.9613557457923889
      ],
      "min": [
        -0.9251657724380493,
        -0.9251666069030762,
        -0.9613557457923889
      ],
      "type": "VEC3"
    },
    {
      "bufferView": 2,
      "byteOffset": 308868,
      "componentType": 5126,
      "count": 3657,
      "max": [
        1.0,
        1.0,
        1.0
      ],
      "min": [
        -1.0,
        -1.0,
        -1.0
      ],
      "type": "VEC3"
    },
    {
      "bufferView": 1,
      "byteOffset": 88328,
      "componentType": 5126,
      "count": 3657,
      "max": [
        1.0000003576278687,
        0.9382714033126831
      ],
      "min": [
        0.008026175200939178,
        0.5000659227371216
      ],
      "type": "VEC2"
    },
    {
      "bufferView": 0,
      "byteOffset": 208896,
      "componentType": 5125,
      "count": 15936,
      "type": "SCALAR"
    }
  ],
  "asset": {
    "extras": {
      "author": "farooq.smurf (https://sketchfab.com/farooq.smurf)",
      "license": "CC-BY-4.0 (http://creativecommons.org/licenses/by/4.0/)",
      "source": "https://sketchfab.com/3d-models/basketball-1eafa95913694d549f99e4d9196a8e51",
      "title": "Basketball"
    },
    "generator": "Sketchfab-15.66.0",
    "version": "2.0"
  },
  "bufferViews": [
    {
      "buffer": 0,
      "byteLength": 272640,
      "name": "floatBufferViews",
      "target": 34963
    },
    {
      "buffer": 0,
      "byteLength": 117584,
      "byteOffset": 272640,
      "byteStride": 8,
      "name": "floatBufferViews",
      "target": 34962
    },
    {
      "buffer": 0,
      "byteLength": 352752,
      "byteOffset": 390224,
      "byteStride": 12,
      "name": "floatBufferViews",
      "target": 34962
    }
  ],
  "buffers": [
    {
      "byteLength": 742976,
      "uri": "scene.bin"
    }
  ],
  "extensionsUsed": [
    "KHR_materials_clearcoat",
    "KHR_materials_emissive_strength"
  ],
  "materials": [
    {
      "doubleSided": true,
      "emissiveFactor": [
        0.16480638723623078,
        0.01842806623979618,
        0.0028661720884162376
      ],
      "extensions": {
        "KHR_materials_clearcoat": {
          "clearcoatFactor": 0.2,
          "clearcoatRoughnessFactor": 0.4
        }
      },
      "name": "Material",
      "pbrMetallicRoughness": {
        "baseColorFactor": [
          0.27467699999999995,
          0.030713500000000026,
          0.004776950000000001,
          1.0
        ],
        "metallicFactor": 0.0,
        "roughnessFactor": 0.5
      }
    },
    {
      "doubleSided": true,
      "extensions": {
        "KHR_materials_clearcoat": {
          "clearcoatFactor": 0.5,
          "clearcoatRoughnessFactor": 0.04
        },
        "KHR_materials_emissive_strength": {
          "emissiveStrength": 10.0
        }
      },
      "name": "Material.002",
      "pbrMetallicRoughness": {
        "baseColorFactor": [
          0.00206343,
          0.00206343,
          0.00206343,
          1.0
        ],
        "metallicFactor": 0.4921919762041179,
        "roughnessFactor": 0.2
      }
    }
  ],
  "meshes": [
    {
      "name": "Sphere_Material_0",
      "primitives": [
        {
          "attributes": {
            "NORMAL": 1,
            "POSITION": 0,
            "TEXCOORD_0": 2
          },
          "indices": 3,
          "material": 0,
          "mode": 4
        }
      ]
    },
    {
      "name": "Sphere_Material.002_0",
      "primitives": [
        {
          "attributes": {
            "NORMAL": 5,
            "POSITION": 4,
            "TEXCOORD_0": 6
          },
          "indices": 7,
          "material": 1,
          "mode": 4
        }
      ]
    }
  ],
  "nodes": [
    {
      "children": [
        1
      ],
      "matrix": [
        1.0,
        0.0,
        0.0,
        0.0,
        0.0,
        2.220446049250313e-16,
        -1.0,
        0.0,
        0.0,
        1.0,
        2.220446049250313e-16,
        0.0,
        0.0,
        0.0,
        0.0,
        1.0
      ],
      "name": "Sketchfab_model"
    },
    {
      "children": [
        2
      ],
      "matrix": [
        0.009999999776482582,
        0.0,
        0.0,
        0.0,
        0.0,
        0.0,
        0.009999999776482582,
        0.0,
        0.0,
        -0.009999999776482582,
        0.0,
        0.0,
        0.0,
        0.0,
        0.0,
        1.0
      ],
      "name": "560340d65e924113b53edc0744b44324.fbx"
    },
    {
      "children": [
        3
      ],
      "name": "RootNode"
    },
    {
      "children": [
        4,
        5
      ],
      "matrix": [
        100.0,
        0.0,
        0.0,
        0.0,
        0.0,
        -1.629206793918314e-05,
        -99.99999999999868,
        0.0,
        0.0,
        99.99999999999868,
        -1.629206793918314e-05,
        0.0,
        0.0,
        0.0,
        0.0,
        1.0
      ],
      "name": "Sphere"
    },
    {
      "mesh": 0,
      "name": "Sphere_Material_0"
    },
    {
      "mesh": 1,
      "name": "Sphere_Material.002_0"
    }
  ],
  "scene": 0,
  "scenes": [
    {
      "name": "Sketchfab_Scene",
      "nodes": [
        0
      ]
    }
  ]
}
